<?xml version="1.0" standalone="no"?>
<!DOCTYPE svg PUBLIC "-//W3C//DTD SVG 20010904//EN"
 "http://www.w3.org/TR/2001/REC-SVG-20010904/DTD/svg10.dtd">
<svg version="1.0" xmlns="http://www.w3.org/2000/svg"
 width="250.000000pt" height="250.000000pt" viewBox="0 0 250.000000 250.000000"
 preserveAspectRatio="xMidYMid meet">

<g transform="translate(0.000000,250.000000) scale(0.100000,-0.100000)"
fill="#000000" stroke="none">
<path d="M0 1250 l0 -1250 1250 0 1250 0 0 1250 0 1250 -1250 0 -1250 0 0
-1250z m1483 1036 c371 -94 658 -363 771 -723 35 -112 46 -188 46 -319 0 -286
-108 -549 -309 -753 -205 -208 -466 -315 -766 -315 -285 1 -541 105 -745 304
-127 123 -252 326 -276 448 -5 26 -3 29 49 45 77 24 81 23 101 -33 22 -62 93
-142 149 -169 49 -24 143 -28 224 -11 76 17 80 22 53 67 -35 59 -70 179 -77
268 l-6 80 -71 76 c-124 131 -179 262 -179 424 0 82 5 114 27 180 85 249 304
412 611 454 108 15 290 4 398 -23z"/>
<path d="M1085 2163 c-234 -33 -422 -178 -479 -372 -32 -109 -13 -238 49 -341
55 -90 60 -91 84 -17 62 185 243 375 428 448 48 19 78 23 173 23 106 1 119 -1
165 -26 58 -31 118 -86 143 -131 12 -23 17 -56 17 -117 0 -76 -4 -93 -32 -151
-62 -125 -203 -253 -356 -324 -115 -53 -193 -68 -319 -62 -122 6 -118 10 -94
-78 15 -57 47 -131 68 -159 14 -17 27 -12 264 107 309 156 377 176 491 142 97
-29 162 -126 150 -224 -15 -129 -118 -242 -274 -303 -67 -27 -94 -31 -198 -35
-153 -6 -238 11 -363 73 l-92 46 -95 -27 c-52 -14 -128 -29 -170 -32 l-76 -6
28 -29 c41 -43 140 -113 213 -149 154 -76 297 -105 474 -96 526 27 925 497
867 1020 -40 355 -265 643 -607 776 -109 42 -323 63 -459 44z"/>
<path d="M1272 1760 c-120 -25 -277 -149 -345 -271 -37 -67 -77 -174 -77 -208
0 -46 182 -60 300 -22 237 75 439 324 354 437 -42 57 -139 83 -232 64z"/>
<path d="M1514 956 c-62 -20 -424 -210 -421 -221 8 -22 123 -47 227 -48 119
-1 188 15 263 63 94 60 139 167 85 204 -27 19 -97 20 -154 2z"/>
</g>
</svg>
