<svg enable-background="new 0 0 251 286" viewBox="0 0 251 286" xmlns="http://www.w3.org/2000/svg" xmlns:xlink="http://www.w3.org/1999/xlink"><linearGradient id="a"><stop offset="0" stop-color="#05aac5"/><stop offset="1" stop-color="#71e0ec"/></linearGradient><linearGradient id="b" gradientUnits="userSpaceOnUse" x1="125.4996" x2="125.4996" xlink:href="#a" y1="234.9332" y2="33.9501"/><linearGradient id="c" gradientUnits="userSpaceOnUse" x1="125.5" x2="125.5" xlink:href="#a" y1="259.8856" y2="17.6906"/><linearGradient id="d" gradientUnits="userSpaceOnUse" x1="125.5" x2="125.5" xlink:href="#a" y1="284.8729" y2=".9991"/><path d="m125.5 234.9c-43.1 0-78.1-35-78.1-78.1 0-41.9 70.7-115.9 73.7-119l3.7-3.9 3.8 3.8c3.1 3.1 75 77.1 75 119 0 43.2-35 78.2-78.1 78.2zm-.6-185.9c-6.2 6.7-19.2 21.2-32.1 38.2-22.9 30.2-35 54.2-35 69.5 0 37.3 30.4 67.7 67.7 67.7s67.7-30.4 67.7-67.7c0-15.3-12.3-39.3-35.6-69.5-13.1-16.9-26.4-31.5-32.7-38.2z" fill="url(#b)"/><path d="m125.5 259.9c-56.9 0-103.1-46.3-103.1-103.1 0-55.6 77.6-133.2 80.9-136.4 2-2 5.4-2 7.4 0s2 5.4 0 7.4c-.8.8-77.8 77.8-77.8 129 0 51.1 41.6 92.7 92.7 92.7s92.7-41.6 92.7-92.7c0-21-13.6-50-39.4-84.1-19.8-26.1-39.7-45.9-39.9-46.1-2.1-2-2.1-5.3 0-7.4 2-2.1 5.3-2.1 7.4 0 3.4 3.3 82.4 81.9 82.4 137.6-.2 56.8-46.4 103.1-103.3 103.1z" fill="url(#c)"/><path d="m125.5 284.9c-69.2 0-125.5-56.3-125.5-125.5 0-28.6 14.4-63.8 42.7-104.5 20.9-30 41.4-51.4 42.3-52.3 2-2.1 5.3-2.1 7.4-.1s2.1 5.3.1 7.4c-.2.2-20.9 21.8-41.3 51.1-26.7 38.3-40.8 72.3-40.8 98.4 0 63.4 51.6 115.1 115.1 115.1s115.1-51.6 115.1-115.1c0-26.1-14.2-60.1-41.1-98.4-20.6-29.3-41.5-50.9-41.7-51.1-2-2.1-2-5.4.1-7.4s5.4-2 7.4.1c3.5 3.6 85.7 89 85.7 156.8 0 69.2-56.3 125.5-125.5 125.5z" fill="url(#d)"/></svg>