<?xml version="1.0" encoding="utf-8"?>
<!-- Generator: Adobe Illustrator 25.0.1, SVG Export Plug-In . SVG Version: 6.00 Build 0)  -->
<svg version="1.1" id="Layer_1" xmlns="http://www.w3.org/2000/svg" xmlns:xlink="http://www.w3.org/1999/xlink" x="0px" y="0px"
	 viewBox="0 0 400 400" style="enable-background:new 0 0 400 400;" xml:space="preserve">
<style type="text/css">
	.st0{fill:url(#SVGID_1_);}
	.st1{fill:url(#SVGID_2_);}
</style>
<image style="overflow:visible;enable-background:new    ;" width="400" height="400" id="Background_copy" xlink:href="506F7EC3472896DB.png" >
</image>
<image style="overflow:visible;" width="976" height="976" xlink:href="../Asset 7.png"  transform="matrix(0.4098 0 0 0.4098 0 0)">
</image>
<linearGradient id="SVGID_1_" gradientUnits="userSpaceOnUse" x1="131.9597" y1="266.3987" x2="304.4146" y2="266.3987">
	<stop  offset="0" style="stop-color:#524B99"/>
	<stop  offset="0.2461" style="stop-color:#554D9A"/>
	<stop  offset="0.4295" style="stop-color:#5F529D"/>
	<stop  offset="0.5927" style="stop-color:#6F5BA2"/>
	<stop  offset="0.7433" style="stop-color:#8567A9"/>
	<stop  offset="0.8256" style="stop-color:#9570AE"/>
</linearGradient>
<path class="st0" d="M273.5,175H162.8c-17,0-30.8,13.8-30.8,30.8v121.2c0,28.1,34.6,41.5,53.6,20.8l110.8-121.2
	C314.4,206.8,300.3,175,273.5,175z"/>
<linearGradient id="SVGID_2_" gradientUnits="userSpaceOnUse" x1="136.1137" y1="165.3748" x2="288.047" y2="83.2892">
	<stop  offset="0.6091" style="stop-color:#009BBA"/>
	<stop  offset="0.7303" style="stop-color:#08A1BF"/>
	<stop  offset="0.9203" style="stop-color:#1FB1CD"/>
	<stop  offset="1" style="stop-color:#2AB9D4"/>
</linearGradient>
<path class="st1" d="M275.2,62.1l-113.8,0c-16.2,0-29.4,13.2-29.4,29.4v120.4c0,26.6,32.5,39.5,50.8,20.2l113.8-120.4
	C314.3,93,301,62.1,275.2,62.1z"/>
</svg>
