<?xml version="1.0" encoding="utf-8"?>
<!-- Generator: Adobe Illustrator 25.4.1, SVG Export Plug-In . SVG Version: 6.00 Build 0)  -->
<svg version="1.1" xmlns="http://www.w3.org/2000/svg" xmlns:xlink="http://www.w3.org/1999/xlink" x="0px" y="0px"
	 viewBox="0 0 1080 1080" style="enable-background:new 0 0 1080 1080;" xml:space="preserve">
<style type="text/css">
	.st0{fill:#FFFFFF;}
	.st1{fill:#70E400;}
	.st2{fill:none;stroke:#70E400;stroke-miterlimit:10;stroke-dasharray:6.5693,6.5694,6.5694,6.5694,6.5694,6.5694;}
	.st3{fill:none;stroke:#B3B3B3;stroke-miterlimit:10;stroke-dasharray:6.5694,6.5694,6.5694,6.5694,6.5694,6.5694;}
	.st4{fill:none;stroke:#66CCFF;stroke-miterlimit:10;stroke-dasharray:6.5694,6.5694,6.5694,6.5694,6.5694,6.5694;}
	.st5{fill:#FF0000;}
	.st6{fill:#66CCFF;}
	.st7{fill:none;stroke:#66CCFF;stroke-miterlimit:10;}
	.st8{fill:none;stroke:#FF0000;stroke-miterlimit:10;}
	.st9{fill:#99CCFF;}
	.st10{fill:#AAAAAA;}
	
		.st11{fill:none;stroke:#AAAAAA;stroke-width:3.8806;stroke-miterlimit:10;stroke-dasharray:19.4032,19.4032,19.4032,19.4032,19.4032,19.4032;}
</style>
<g id="Background__x28_turn_off_for_transparant_logos_x29_">
	<rect x="-35.88" y="-35.88" width="1151.77" height="1151.77"/>
</g>
<g id="Artwork">
	<g id="Isolation_Mode_00000072977325917253886790000016600931420103765417_">
	</g>
	<g id="Isolation_Mode_00000033342632443773965340000015124181062309927071_">
	</g>
	<g id="Isolation_Mode">
	</g>
	<g>
		<polygon class="st0" points="578.5,434.9 646.61,316.94 960.86,862.3 540.27,862.3 608.35,744.39 756.84,744.39 646.53,552.95 
			573.36,679.68 437.22,679.68 578.52,434.93 		"/>
		<polygon class="st9" points="540.01,368.09 540.1,368.26 608.21,250.29 540.01,131.94 471.79,250.33 539.89,368.29 		"/>
		<polygon class="st9" points="537.36,744.39 536.27,744.39 536,744.39 400.12,744.39 399.85,744.39 323.17,744.39 420.51,575.47 
			501.49,434.94 433.38,316.98 318.35,516.6 119.15,862.3 469.29,862.3 		"/>
	</g>
	<g id="Isolation_Mode_00000149368335959233234600000013624784908626565782_">
	</g>
	<g id="Isolation_Mode_00000093153518498487479220000008540903874771820732_">
	</g>
</g>
<g id="NOTES">
</g>
</svg>
